<?xml version="1.0" encoding="utf-8"?><!-- Uploaded to: SVG Repo, www.svgrepo.com, Generator: SVG Repo Mixer Tools -->
<svg width="100%" height="100%" viewBox="0 0 24 24" fill="none" xmlns="http://www.w3.org/2000/svg">
<path d="M17.416 2.62412C17.7607 2.39435 17.8538 1.9287 17.624 1.58405C17.3943 1.23941 16.9286 1.14628 16.584 1.37604L13.6687 3.31955C13.1527 3.11343 12.5897 3.00006 12.0001 3.00006C11.4105 3.00006 10.8474 3.11345 10.3314 3.31962L7.41603 1.37604C7.07138 1.14628 6.60573 1.23941 6.37596 1.58405C6.1462 1.9287 6.23933 2.39435 6.58397 2.62412L8.9437 4.19727C8.24831 4.84109 7.75664 5.70181 7.57617 6.6719C8.01128 6.55973 8.46749 6.50006 8.93763 6.50006H15.0626C15.5328 6.50006 15.989 6.55973 16.4241 6.6719C16.2436 5.70176 15.7519 4.841 15.0564 4.19717L17.416 2.62412Z" fill="#1C274C"/>
<path d="M1.25 14.0001C1.25 13.5859 1.58579 13.2501 2 13.2501H5V11.9376C5 11.1019 5.26034 10.327 5.70435 9.68959L3.22141 8.69624C2.83684 8.54238 2.6498 8.10589 2.80366 7.72131C2.95752 7.33673 3.39401 7.1497 3.77859 7.30356L6.91514 8.55841C7.50624 8.20388 8.19807 8.00006 8.9375 8.00006H15.0625C15.8019 8.00006 16.4938 8.20388 17.0849 8.55841L20.2214 7.30356C20.606 7.1497 21.0425 7.33673 21.1963 7.72131C21.3502 8.10589 21.1632 8.54238 20.7786 8.69624L18.2957 9.68959C18.7397 10.327 19 11.1019 19 11.9376V13.2501H22C22.4142 13.2501 22.75 13.5859 22.75 14.0001C22.75 14.4143 22.4142 14.7501 22 14.7501H19V15.0001C19 16.1808 18.7077 17.2932 18.1915 18.2689L20.7786 19.3039C21.1632 19.4578 21.3502 19.8943 21.1963 20.2789C21.0425 20.6634 20.606 20.8505 20.2214 20.6966L17.3288 19.5394C16.1974 20.8664 14.5789 21.7655 12.75 21.9604V15.0001C12.75 14.5858 12.4142 14.2501 12 14.2501C11.5858 14.2501 11.25 14.5858 11.25 15.0001V21.9604C9.42109 21.7655 7.80265 20.8664 6.67115 19.5394L3.77859 20.6966C3.39401 20.8505 2.95752 20.6634 2.80366 20.2789C2.6498 19.8943 2.83684 19.4578 3.22141 19.3039L5.80852 18.2689C5.29231 17.2932 5 16.1808 5 15.0001V14.7501H2C1.58579 14.7501 1.25 14.4143 1.25 14.0001Z" fill="#1C274C"/>
</svg>