<?xml version="1.0" encoding="utf-8"?>

<!-- Uploaded to: SVG Repo, www.svgrepo.com, Generator: SVG Repo Mixer Tools -->
<svg fill="#000000" width="100%" height="100%" version="1.1" id="Icons" xmlns="http://www.w3.org/2000/svg" xmlns:xlink="http://www.w3.org/1999/xlink" 
	 viewBox="0 0 32 32" xml:space="preserve">
<g>
	<path d="M23.8,25l-1.5-1.6C20.2,21,19,17.8,19,14.6c0-1.9,1-3.7,2.6-4.8c0.4-0.2,0.5-0.7,0.4-1.1C21.8,8.3,21.4,8,21,8H11
		c-0.4,0-0.8,0.3-1,0.7c-0.1,0.4,0,0.9,0.4,1.1c1.6,1.1,2.6,2.9,2.6,4.8c0,3.2-1.2,6.3-3.3,8.8L8.2,25c-0.8,0.9-1,2.1-0.5,3.2
		c0.5,1.1,1.5,1.8,2.7,1.8h11.1c1.2,0,2.2-0.7,2.7-1.8C24.8,27.1,24.6,25.9,23.8,25z M13.5,10h5c-1,1.3-1.5,2.9-1.5,4.6
		c0,3.4,1.2,6.7,3.3,9.4h-8.5c2.1-2.7,3.3-6,3.3-9.4C15,12.9,14.5,11.3,13.5,10z"/>
	<path d="M19,3c0.6,0,1-0.4,1-1V1c0-0.6-0.4-1-1-1s-1,0.4-1,1v1C18,2.6,18.4,3,19,3z"/>
	<path d="M13,4c0.6,0,1-0.4,1-1V2c0-0.6-0.4-1-1-1s-1,0.4-1,1v1C12,3.6,12.4,4,13,4z"/>
	<path d="M16,7c0.6,0,1-0.4,1-1V5c0-0.6-0.4-1-1-1s-1,0.4-1,1v1C15,6.6,15.4,7,16,7z"/>
</g>
</svg>