<?xml version="1.0" encoding="utf-8"?>

<!-- Uploaded to: SVG Repo, www.svgrepo.com, Generator: SVG Repo Mixer Tools -->
<svg width="100%" height="100%" version="1.1" id="Icons" xmlns="http://www.w3.org/2000/svg" xmlns:xlink="http://www.w3.org/1999/xlink" 
	 viewBox="0 0 32 32" xml:space="preserve">
<style type="text/css">
	.st0{fill:#FFFFFF;}
</style>
<g>
	<path d="M20,24c-2.8,0-5-2.2-5-5s2.2-5,5-5s5,2.2,5,5S22.8,24,20,24z"/>
</g>
<path d="M29,5H3C2.4,5,2,5.4,2,6v20c0,0.6,0.4,1,1,1h11v-4.4c-0.6-1.1-1-2.3-1-3.6c0-3.9,3.1-7,7-7s7,3.1,7,7c0,1.3-0.4,2.5-1,3.6
	V27h3c0.6,0,1-0.4,1-1V6C30,5.4,29.6,5,29,5z M10,16H6c-0.6,0-1-0.4-1-1s0.4-1,1-1h4c0.6,0,1,0.4,1,1S10.6,16,10,16z M13,12H6
	c-0.6,0-1-0.4-1-1s0.4-1,1-1h7c0.6,0,1,0.4,1,1S13.6,12,13,12z"/>
<path d="M20,26c-1.5,0-2.9-0.5-4-1.3V31c0,0.3,0.2,0.6,0.4,0.8c0.3,0.2,0.6,0.2,0.9,0.1l2.7-0.9l2.7,0.9c0.1,0,0.2,0.1,0.3,0.1
	c0.2,0,0.4-0.1,0.6-0.2c0.3-0.2,0.4-0.5,0.4-0.8v-6.3C22.9,25.5,21.5,26,20,26z"/>
</svg>