<?xml version="1.0" encoding="utf-8"?><!-- Uploaded to: SVG Repo, www.svgrepo.com, Generator: SVG Repo Mixer Tools -->
<svg fill="#000000" width="100%" height="100%" viewBox="0 0 24 24" id="idea-lamp" data-name="Line Color" xmlns="http://www.w3.org/2000/svg" class="icon line-color"><path id="primary" d="M16.19,13.29A4,4,0,0,0,15,16.12V19a1,1,0,0,1-1,1H10a1,1,0,0,1-1-1V16.13a4.13,4.13,0,0,0-1.26-2.91,6,6,0,1,1,8.45.07Z" style="fill: none; stroke: rgb(0, 0, 0); stroke-linecap: round; stroke-linejoin: round; stroke-width: 2;"></path><path id="secondary" d="M15,16a.49.49,0,0,0,0,.12V19a1,1,0,0,1-1,1H10a1,1,0,0,1-1-1V16.13A.57.57,0,0,0,9,16Zm-2,5H11V20h2Z" style="fill: none; stroke: rgb(44, 169, 188); stroke-linecap: round; stroke-linejoin: round; stroke-width: 2;"></path></svg>